<?xml version="1.0" encoding="utf-8"?>
<!-- Generator: Adobe Illustrator 27.4.0, SVG Export Plug-In . SVG Version: 6.00 Build 0)  -->
<svg version="1.1" id="Layer_1" xmlns="http://www.w3.org/2000/svg" xmlns:xlink="http://www.w3.org/1999/xlink" x="0px" y="0px"
	 viewBox="0 0 702.4 626.2" style="enable-background:new 0 0 702.4 626.2;" xml:space="preserve">
<style type="text/css">
	.st0{fill:#E6E6E6;}
	.st1{fill:#3F3D56;}
	.st2{fill:#DC46E0;}
	.st3{fill:#6C64F1;}
	.st4{opacity:0.3;fill:#F0F0F0;enable-background:new    ;}
	.st5{fill:#FF6584;}
	.st6{fill:#F2F2F2;}
	.st7{fill:#CCCCCC;}
</style>
<path class="st0" d="M447.4,500.1l6.6,14.7c-5.3-0.9-10.3,3.7-10.4,9.6s4.7,12,10,12.8c-1,4.5-5.4,6.6-9.3,8.4
	c-3.8,1.8-7.9,4.9-7.7,9.7c0.2,3.9,3.4,7.3,6.9,8.7c3.4,1.4,7,1.2,10.5,0.9c-5.2,5.5-5.8,15.8-1.2,23.2c4.6,7.4,13.8,11,20.7,8.2
	c-4.9,6.1-3.8,17.1,2.2,23.4c6.1,6.3,14.9,6.9,22.6,6.2c19.6-1.7,38.4-9.1,53.8-21.3c5.9-4.7,11.4-10.2,14.8-17.4s4.4-16.3,1.2-24.5
	c0.8,10.2,11.1,18.3,20.3,18.8s17.3-4.7,24.1-10.7c9.1-7.9,17.5-18.9,16.3-32.6c-0.6-6.7-3.6-13.2-6.5-19.5l-5.6-12.2
	c-2.3-4.9-4.6-9.9-8-14.1s-8.1-7.3-12.9-7.3c1.1-4.9,2.2-10.1,1.3-15.3c-0.9-5.3-4.4-10.7-9.1-11.9c-6-1.6-11.1,4-17.1,3.5
	c-5.8-0.5-10.6-6.3-16.3-8.6c-4.8-2.1-10.3-1.1-14,2.4c-3.6,3.5-5.1,9.4-3.8,15c1.1,4.9,4.1,9.2,5.9,13.9c1.8,4.7,2.1,10.8-1.4,13.4
	c-4.2,3.1-10.6-1.1-13.9-6.2c-3.3-5.1-5.2-11.3-9.3-15.6c-4.9-5.1-12.6-6.3-17.7-2.7s-7,11.5-4.4,18.2c2.1,5.5,6.9,11.1,5.2,16.3
	c-1.8,5.5-9.4,4.8-14,0.9c-4.6-3.9-7.7-9.7-12.2-13.7c-4.6-4-10.7-5.8-16-4.7c-5.5,1.3-9.9,5.2-11.8,10.5"/>
<path class="st1" d="M553.8,458.7l-13.6,6.3c-2,1-4.4,1.3-6.6,0.9c-2-0.5-3.3-1.7-3.7-3.3l-3.2-14.8c-0.6-2.8,1.7-6.1,5.5-7.9
	l7.5-3.5c3.8-1.8,7.8-1.4,9.6,0.9l9.3,12c1,1.3,1.1,3.1,0.2,4.9C557.7,456.2,555.9,457.8,553.8,458.7z"/>
<path class="st2" d="M131,184.8c12.8-35.1,32.8-67.1,58.7-94c22-22.8,56.2-21.9,56.2-21.9l0.2-0.2c16.8-20.8,44.5-29.4,70.1-21.9
	c3.3,0.9,5.8,1.4,7,0.9C345,40,344,22.8,362.7,9c32.9-24.2,141.9,3.5,157.3,48.1c12.5,36.2,68.1,53.7,88.9,81.3
	c3.2,4.3,6.4,8.7,9.6,13.1c1.5,2.1,2.9,4.1,4.3,6.2c14.7,21.3,27.9,43.6,39.5,66.8c7.6,15.1,14.2,30.8,19.8,46.8
	c21.7,63.3,14.3,110.5-45.5,98.9c-7.1-1.4-14-2.6-20.7-3.7c-9.8-1.6-19.2-2.9-28.2-3.9c-12.2-1.4-23.8-2.3-34.9-2.7
	c-3.7-0.1-7.3-0.2-10.9-0.3c-52.8-0.7-92,9.2-121.8,24.6c-5.1,2.6-9.9,5.4-14.4,8.3c-6.9,4.4-13.5,9.3-19.8,14.6
	c-8.6,7.4-16.6,15.6-23.8,24.4l-0.4,0.5c-34.9,42.7-46.4,90-70.7,98.3c-103.8,35.6-169.4-93.4-176.1-219.6c-0.3-6.4-0.5-12.7-0.6-19
	c0-2.8,0-5.6,0-8.5c0.1-7.3,0.4-14.6,1-21.8c0.2-2.8,0.4-5.5,0.7-8.2c0.3-2.9,0.6-5.9,1-8.8C119.7,223.2,124.3,203,131,184.8z"/>
<path class="st1" d="M452.6,254.2c-8.3,3.9-8.4,21.1-5.8,26.7l4.7,10.1l30-13.9l-4.7-10.1C474.2,261.4,460.9,250.3,452.6,254.2z"/>
<path class="st1" d="M372,399.7c-1.8,0-3.3-1.5-3.3-3.3c0-0.4,0.1-0.8,0.2-1.1c0.3-0.8,0.9-1.5,1.7-1.8l155-72
	c1.6-0.8,3.6-0.1,4.4,1.6c0,0,0,0,0,0c0.8,1.6,0,3.6-1.6,4.4h0l-155,72C372.9,399.6,372.4,399.7,372,399.7z"/>
<rect x="481.4" y="286.2" transform="matrix(0.9069 -0.4214 0.4214 0.9069 -108.2449 247.4658)" class="st0" width="48.9" height="165"/>
<path class="st1" d="M326.9,95.2c-8.3,3.9-8.4,21.1-5.8,26.7l4.7,10.1l30-13.9l-4.7-10.1C348.5,102.4,335.2,91.4,326.9,95.2z"/>
<path class="st1" d="M512.6,475.9l-13.6,6.3c-2,1-4.4,1.3-6.6,0.9c-2-0.5-3.3-1.7-3.7-3.3l-3.2-14.8c-0.6-2.8,1.7-6.1,5.5-7.9
	l7.5-3.5c3.8-1.8,7.8-1.4,9.6,0.9l9.3,12c1,1.3,1.1,3.1,0.2,4.9C516.4,473.4,514.7,475,512.6,475.9z"/>
<path class="st1" d="M470.7,496.7L457,503c-2,1-4.4,1.3-6.6,0.9c-2-0.5-3.3-1.7-3.7-3.3l-3.2-14.8c-0.6-2.8,1.7-6.1,5.5-7.9l7.5-3.5
	c3.8-1.8,7.8-1.4,9.6,0.9l9.3,12c1,1.3,1.1,3.1,0.2,4.9C474.5,494.2,472.8,495.8,470.7,496.7z"/>
<rect x="403" y="144.8" transform="matrix(0.9069 -0.4214 0.4214 0.9069 -91.4909 209.101)" class="st0" width="48.9" height="333.5"/>
<polyline class="st1" points="425.3,306 420.3,295 423.2,293.7 428.1,304.6 499.9,463.8 497.1,465.1 "/>
<polyline class="st1" points="481.4,296.9 476.4,285.9 479.3,284.6 484.2,295.5 556,454.7 553.2,456 "/>
<path class="st0" d="M400.2,174.3l-60,27.9c-3.8-5.9-15.3-36.4-12.8-45.5l-1.9-8.6l41.5-19.3l5.5,6.8
	C380.7,138.2,396.8,166.8,400.2,174.3z"/>
<path class="st0" d="M368.7,129.2l-42.8,19.9c-1.6,0.7-3.3,0.5-3.8-0.6c-0.1-0.2-0.1-0.3-0.1-0.5l-2.2-23.6c-0.1-1,0.8-2.2,2.1-2.8
	l28.4-13.2c1.3-0.6,2.8-0.5,3.5,0.2l16.6,16.9c0.9,0.9,0.4,2.3-1,3.3C369.1,128.9,368.9,129.1,368.7,129.2z"/>
<path class="st1" d="M402.2,314.3c-0.5,0-0.9-0.1-1.4-0.2c-1.3-0.3-2.4-1.1-3-2.3l-26.2-56.3c-1.1-2.3,0.4-5.3,3.2-6.6l38.3-17.8
	c2.9-1.3,6.1-0.5,7.2,1.8l26.2,56.3c0.5,1.2,0.5,2.6-0.2,3.7c-0.7,1.3-1.8,2.3-3.1,2.9l-38.3,17.8
	C404.2,314,403.2,314.2,402.2,314.3z"/>
<rect x="395.6" y="325.4" transform="matrix(0.9069 -0.4214 0.4214 0.9069 -132.7529 214.9729)" class="st0" width="48.9" height="165"/>
<path class="st1" d="M352.9,131.6l-13,6c-2.5,1.2-5.9-0.8-7.5-4.3s-1-7.4,1.6-8.6l13-6c2.5-1.2,5.9,0.8,7.5,4.3
	C356.1,126.6,355.4,130.5,352.9,131.6z"/>
<path class="st1" d="M367.7,293c-8.3,3.9-8.4,21.1-5.8,26.7l4.7,10.1l30-13.9l-4.7-10.1C389.3,300.2,376,289.1,367.7,293z"/>
<path class="st0" d="M230.1,258.5c-2.9,2-5.9-2.7-2.9-4.6C230,252,233,256.6,230.1,258.5z"/>
<path class="st0" d="M534.7,191.8c-2.9,2-5.9-2.7-2.9-4.6C534.7,185.3,537.7,189.9,534.7,191.8z"/>
<path class="st0" d="M327.1,244.8c-2.9,2-5.9-2.7-2.9-4.6C327.1,238.3,330.1,243,327.1,244.8z"/>
<path class="st0" d="M230.1,426.7c-2.9,2-5.9-2.7-2.9-4.6C230,420.2,233,424.9,230.1,426.7z"/>
<path class="st0" d="M379.4,47c-2.9,2-5.9-2.7-2.9-4.6C379.4,40.5,382.4,45.1,379.4,47z"/>
<path class="st0" d="M235.4,136.4c-2.9,2-5.9-2.7-2.9-4.6C235.3,129.9,238.3,134.6,235.4,136.4z"/>
<polygon class="st0" points="442.5,110.8 440.6,110.4 441,108.5 439.8,108.3 439.4,110.1 437.5,109.7 437.2,111 439.1,111.4 
	438.7,113.2 439.9,113.5 440.4,111.6 442.2,112.1 "/>
<polygon class="st0" points="139.2,266 137.4,265.6 137.8,263.7 136.5,263.5 136.1,265.3 134.3,264.9 134,266.2 135.9,266.6 
	135.5,268.4 136.7,268.7 137.1,266.9 139,267.3 "/>
<path class="st1" d="M521.2,345.2c-3.2,1.5-7.1,0.1-8.6-3.1l-7.7-16.5c-1.5-3.2-0.1-7.1,3.1-8.6c3.2-1.5,7-0.1,8.5,3.1l7.7,16.5
	C525.8,339.9,524.4,343.7,521.2,345.2z"/>
<path class="st1" d="M390.8,405.8c-3.2,1.5-7.1,0.1-8.6-3.1l-7.7-16.5c-1.5-3.2-0.1-7.1,3.1-8.6c3.2-1.5,7.1-0.1,8.6,3.1l7.7,16.5
	C395.4,400.5,394,404.3,390.8,405.8z"/>
<path class="st0" d="M509.3,309.1L458,333c-3.3-5.1-13.1-31.2-10.9-38.9l1.1-8.7l30.7-15.1l6.8,5.7
	C495.2,272.8,509.3,296.6,509.3,309.1z"/>
<path class="st1" d="M485.5,307.5l-13,6c-2.5,1.2-6.3-1.7-8.5-6.4c-2.2-4.7-1.9-9.5,0.6-10.6l13-6c2.5-1.2,6.3,1.7,8.5,6.4
	C488.3,301.6,488,306.3,485.5,307.5z"/>
<polyline class="st1" points="375.3,338.6 370.3,327.6 373.2,326.3 378.1,337.2 449.9,496.4 447,497.7 "/>
<path class="st0" d="M424.4,348L373,371.8c-7.6-3.9-19.2-29.5-10.9-38.9l1.1-8.7l30.7-15.1l6.8,5.7
	C407.7,317.1,421.5,341.6,424.4,348z"/>
<path class="st1" d="M399.5,344l-13,6c-2.5,1.2-6.1-1.2-8-5.3s-1.4-8.3,1.1-9.5l13-6c2.5-1.2,6.1,1.2,8,5.3S402,342.9,399.5,344z"/>
<circle class="st3" cx="139.1" cy="155.3" r="78.1"/>
<path class="st4" d="M459.1,236.6L506.6,98l-52.1,136.9c-0.9,1.1-0.7,2.8,0.4,3.7c1.1,0.9,2.8,0.7,3.7-0.4
	C458.9,237.7,459.1,237.1,459.1,236.6L459.1,236.6z"/>
<path class="st1" d="M580.1,154c-9.3,3.1-19.6,6.1-30.9,9.1c-58.5,15.4-136.8,27.4-220.7,33.8c-83.8,6.4-163.1,6.5-223.3,0.1
	c-29.3-3.1-52.5-7.5-68.9-13.2c-17.4-6-26.5-13.2-27.1-21.5c-1.2-16.1,30.5-30.2,57.3-39.2l0.7,2.2c-36.8,12.4-56.6,25.5-55.8,36.9
	c1.1,14.5,35.4,26.4,93.9,32.5c60,6.3,139.1,6.3,222.8-0.1c83.7-6.4,161.9-18.4,220.3-33.7c57-15,89-31.9,87.9-46.5
	c-0.9-12.1-24.7-22.4-66.9-29l0.4-2.2c30.7,4.8,67.5,14.2,68.8,31.1c0.6,8.2-7.3,16.8-23.5,25.3C606,144.5,594.2,149.3,580.1,154z"
	/>
<circle class="st5" cx="603" cy="284.3" r="8.1"/>
<circle class="st6" cx="654.5" cy="504.1" r="8.1"/>
<circle class="st6" cx="377.9" cy="545.8" r="15.8"/>
<circle class="st1" cx="257.4" cy="344.2" r="8.1"/>
<polygon class="st0" points="530.1,362.9 565.1,371.9 586.6,414.1 550.3,415.5 "/>
<polygon class="st7" points="449.3,302.1 468.6,321.4 517.5,427.1 508.5,434.9 "/>
<polygon class="st7" points="407.4,319.6 408.9,346.8 455.1,453.8 466.9,452.2 "/>
<polygon class="st0" points="406.2,429.5 387.3,460.3 401.2,505.5 428.3,481.3 "/>
<path class="st1" d="M572.7,448.4c-9.8,0-20.5-0.4-32.2-1.1c-60.3-3.8-138.5-17.2-220.1-37.5c-81.6-20.4-156.8-45.3-211.9-70.3
	c-26.8-12.2-47.4-23.7-61.2-34.2c-14.6-11.2-21-20.9-19-28.9c3.9-15.6,38.5-19.1,66.7-19.2l0,2.3c-38.9,0.2-61.8,6.4-64.5,17.4
	c-3.5,14.1,25.2,36.2,78.9,60.5c54.9,24.9,130.1,49.8,211.5,70.2c81.5,20.3,159.5,33.6,219.7,37.4c58.8,3.7,94.5-2.2,98.1-16.4
	c2.9-11.7-16.4-29-54.3-48.7l1-2c27.6,14.3,59.6,34.8,55.5,51.2c-2,8-12.2,13.6-30.3,16.6C600.3,447.6,587.6,448.4,572.7,448.4z"/>
</svg>
