<svg xmlns="http://www.w3.org/2000/svg" xmlns:xlink="http://www.w3.org/1999/xlink" version="1.1" id="Layer_1" x="0px" y="0px" width="100%" viewBox="0 0 512 512" enable-background="new 0 0 512 512" xml:space="preserve">
<path fill="#000000" opacity="1.000000" stroke="none" d=" M323.000000,513.000000   C215.359482,513.000000 108.218956,513.000000 1.039217,513.000000   C1.039217,342.401123 1.039217,171.802231 1.039217,1.101671   C171.557190,1.101671 342.114471,1.101671 512.835876,1.101671   C512.835876,171.666534 512.835876,342.333252 512.835876,513.000000   C449.802216,513.000000 386.651093,513.000000 323.000000,513.000000  M289.263702,325.997314   C282.081268,332.415863 275.121002,339.106262 267.669861,345.196014   C252.516342,357.580841 237.097763,369.641327 221.127991,382.007111   C216.683929,385.110535 212.239868,388.213959 207.596130,391.456818   C208.475159,392.080566 208.841278,392.448822 209.283981,392.632874   C210.356873,393.078857 211.453049,393.478241 212.561386,393.828156   C249.071838,405.355713 284.878174,403.463348 319.343628,386.773621   C357.265778,368.409973 382.220825,338.515594 394.692322,298.273712   C395.206207,296.615540 395.307495,294.196533 394.451935,292.877167   C392.604187,290.027740 390.008972,287.663086 388.562134,286.043365   C383.349335,288.862030 379.364960,292.731964 375.479126,292.635468   C371.587677,292.538818 367.794647,288.480774 363.680847,285.991058   C348.017944,300.352264 329.224976,308.616791 307.484589,310.059296   C306.305328,310.137543 304.950439,310.859711 304.076233,311.698120   C299.281433,316.296509 294.611176,321.024689 289.263702,325.997314  M279.828278,312.885468   C283.307220,309.541687 286.648102,306.036682 290.307159,302.903290   C293.440674,300.219971 294.417847,297.030426 295.074982,293.019073   C296.382629,285.037231 297.594757,276.727173 300.853760,269.451996   C305.541077,258.988373 312.019928,249.327332 318.318024,238.301544   C318.003784,238.061569 316.405792,237.095505 315.120819,235.815231   C309.930176,230.643723 309.913635,226.975662 314.863678,221.751663   C315.655212,220.916321 316.364197,220.002716 317.709991,218.864563   C317.294922,217.460068 317.302795,215.643646 316.398743,214.715424   C308.261963,206.361404 299.910095,198.217407 291.738403,189.896774   C287.589813,185.672592 287.535278,181.324188 291.592499,177.167435   C298.574341,170.014313 305.739227,163.040253 312.778412,155.942551   C315.666321,153.030640 318.936523,152.349274 322.827545,153.506744   C327.606995,154.928421 332.448547,156.141006 337.262177,157.448074   C347.011749,160.095444 356.760559,162.745544 366.509705,165.394516   C360.207245,156.438049 352.867035,148.906738 343.727417,142.296463   C320.341095,124.657761 293.954010,114.382431 264.784729,113.339745   C209.855026,111.376236 166.633835,133.608414 135.891769,179.269455   C125.578613,194.587540 118.717201,211.514420 115.476624,230.577042   C111.932968,249.113678 111.989334,267.657043 116.032639,286.074585   C125.183250,327.756317 148.186340,359.531281 184.770706,381.538605   C188.161087,383.578064 190.741196,383.709015 194.039825,381.290497   C205.435623,372.935120 217.495270,365.424530 228.447876,356.539246   C245.732452,342.517090 262.325317,327.642273 279.828278,312.885468  M356.159058,254.340698   C362.570831,260.833710 368.982605,267.326691 375.473083,273.899414   C376.416199,273.113953 377.091644,272.635681 377.668549,272.058838   C398.756226,250.972778 419.926147,229.967896 440.885223,208.754684   C457.193420,192.248734 467.662842,172.447144 472.539307,149.792679   C473.976593,143.115555 474.533142,136.248840 475.535492,129.171219   C442.716675,131.302368 415.763367,143.401016 393.436218,165.825974   C373.569977,185.779266 353.626129,205.655350 333.723450,225.572388   C332.716461,226.580109 331.774750,227.653091 330.664001,228.844345   C339.185089,237.365845 347.422089,245.603256 356.159058,254.340698  M324.349091,258.840179   C316.941833,269.226746 312.167450,280.584045 310.973053,293.557007   C327.860382,291.503693 344.867584,283.306702 352.031708,274.431244   C344.640900,267.006378 337.322113,259.653870 329.828217,252.125397   C328.350891,253.931702 326.574463,256.103729 324.349091,258.840179  M324.982605,170.696030   C323.331329,170.916702 321.193176,170.556320 320.114349,171.460236   C315.799438,175.075455 311.813538,179.083405 307.970520,182.697235   C315.964630,190.703064 323.354706,198.103973 329.680786,204.439346   C338.152405,195.983810 346.789490,187.363113 355.230103,178.938507   C345.957611,176.409882 335.856049,173.655151 324.982605,170.696030  M411.475159,287.025208   C414.360687,290.399811 417.246216,293.774414 420.671906,297.780731   C424.297150,293.804810 426.428528,290.684845 429.281616,288.512756   C434.150452,284.806091 434.672119,280.743988 432.812408,275.154999   C429.856445,266.271637 427.683929,257.127563 425.253693,248.359543   C416.431274,257.168335 407.888763,265.697693 398.817657,274.754822   C402.675690,278.490204 406.825287,282.507843 411.475159,287.025208  M48.495193,195.680862   C49.875130,190.970139 48.258423,187.521484 43.847603,185.601486   C40.197495,184.012589 37.013149,185.219345 34.619755,188.233597   C31.899309,191.659744 32.617966,196.566147 36.058426,199.269943   C40.063763,202.417618 44.537861,201.353409 48.495193,195.680862  z"/>
<path fill="#5783E3" opacity="1.000000" stroke="none" d=" M115.913673,229.917969   C118.717201,211.514420 125.578613,194.587540 135.891769,179.269455   C166.633835,133.608414 209.855026,111.376236 264.784729,113.339745   C293.954010,114.382431 320.341095,124.657761 343.428925,142.630554   C316.672272,142.976715 290.213959,142.953384 263.756104,143.047882   C260.632141,143.059021 257.427124,143.379639 254.401382,144.128998   C234.943832,148.947830 223.951935,165.334366 224.380859,182.169846   C224.928619,203.668854 242.027328,218.951752 263.700043,219.000351   C281.503815,219.040268 299.307556,219.083511 317.111328,219.125275   C316.364197,220.002716 315.655212,220.916321 314.863678,221.751663   C309.913635,226.975662 309.930176,230.643723 315.120819,235.815231   C316.405792,237.095505 318.003784,238.061569 318.318024,238.301544   C312.019928,249.327332 305.541077,258.988373 300.853760,269.451996   C297.594757,276.727173 296.382629,285.037231 295.074982,293.019073   C294.417847,297.030426 293.440674,300.219971 290.307159,302.903290   C286.648102,306.036682 283.307220,309.541687 279.210266,312.823853   C272.146210,308.229523 265.038300,305.934875 257.102966,305.948578   C224.631165,306.004578 192.159149,305.925476 159.687363,305.982361   C146.413895,306.005615 134.874329,293.745392 137.956161,279.451447   C140.139130,269.326477 149.267593,262.207672 161.172623,262.129974   C176.492050,262.029999 191.813217,262.171387 207.132111,262.036011   C209.712799,262.013214 212.508102,261.601135 214.821152,260.536530   C222.069626,257.200409 225.594406,249.497849 223.805832,241.851166   C222.226440,235.098709 215.454865,229.994949 207.833435,229.983398   C177.193558,229.936981 146.553604,229.935837 115.913673,229.917969  z"/>
<path fill="#85D1AF" opacity="1.000000" stroke="none" d=" M115.695145,230.247498   C146.553604,229.935837 177.193558,229.936981 207.833435,229.983398   C215.454865,229.994949 222.226440,235.098709 223.805832,241.851166   C225.594406,249.497849 222.069626,257.200409 214.821152,260.536530   C212.508102,261.601135 209.712799,262.013214 207.132111,262.036011   C191.813217,262.171387 176.492050,262.029999 161.172623,262.129974   C149.267593,262.207672 140.139130,269.326477 137.956161,279.451447   C134.874329,293.745392 146.413895,306.005615 159.687363,305.982361   C192.159149,305.925476 224.631165,306.004578 257.102966,305.948578   C265.038300,305.934875 272.146210,308.229523 278.901611,312.945312   C262.325317,327.642273 245.732452,342.517090 228.447876,356.539246   C217.495270,365.424530 205.435623,372.935120 194.039825,381.290497   C190.741196,383.709015 188.161087,383.578064 184.770706,381.538605   C148.186340,359.531281 125.183250,327.756317 116.032639,286.074585   C111.989334,267.657043 111.932968,249.113678 115.695145,230.247498  z"/>
<path fill="#5782E3" opacity="1.000000" stroke="none" d=" M289.898132,325.708313   C294.611176,321.024689 299.281433,316.296509 304.076233,311.698120   C304.950439,310.859711 306.305328,310.137543 307.484589,310.059296   C329.224976,308.616791 348.017944,300.352264 363.680847,285.991058   C367.794647,288.480774 371.587677,292.538818 375.479126,292.635468   C379.364960,292.731964 383.349335,288.862030 388.562134,286.043365   C390.008972,287.663086 392.604187,290.027740 394.451935,292.877167   C395.307495,294.196533 395.206207,296.615540 394.692322,298.273712   C382.220825,338.515594 357.265778,368.409973 319.343628,386.773621   C284.878174,403.463348 249.071838,405.355713 212.561386,393.828156   C211.453049,393.478241 210.356873,393.078857 209.283981,392.632874   C208.841278,392.448822 208.475159,392.080566 207.596130,391.456818   C212.239868,388.213959 216.683929,385.110535 221.937317,381.963745   C233.066528,381.937042 243.386810,381.905579 253.706253,381.982666   C266.578247,382.078766 277.264191,377.544250 285.885803,367.798248   C296.122925,356.226013 298.048462,337.787018 289.898132,325.708313  z"/>
<path fill="#EFF4FD" opacity="1.000000" stroke="none" d=" M355.909088,254.090683   C347.422089,245.603256 339.185089,237.365845 330.664001,228.844345   C331.774750,227.653091 332.716461,226.580109 333.723450,225.572388   C353.626129,205.655350 373.569977,185.779266 393.436218,165.825974   C415.763367,143.401016 442.716675,131.302368 475.535492,129.171219   C474.533142,136.248840 473.976593,143.115555 472.539307,149.792679   C467.662842,172.447144 457.193420,192.248734 440.885223,208.754684   C419.926147,229.967896 398.756226,250.972778 377.668549,272.058838   C377.091644,272.635681 376.416199,273.113953 375.473083,273.899414   C368.982605,267.326691 362.570831,260.833710 355.909088,254.090683  M418.491943,200.233765   C432.775665,204.557739 446.497742,197.432083 449.900421,183.923767   C453.356903,170.201843 445.045349,157.211884 431.008911,154.398560   C419.662079,152.124298 407.785339,158.982010 404.034149,169.973984   C399.912292,182.052032 405.316528,193.889130 418.491943,200.233765  z"/>
<path fill="#85D1AF" opacity="1.000000" stroke="none" d=" M317.410645,218.994919   C299.307556,219.083511 281.503815,219.040268 263.700043,219.000351   C242.027328,218.951752 224.928619,203.668854 224.380859,182.169846   C223.951935,165.334366 234.943832,148.947830 254.401382,144.128998   C257.427124,143.379639 260.632141,143.059021 263.756104,143.047882   C290.213959,142.953384 316.672272,142.976715 343.598633,142.917938   C352.867035,148.906738 360.207245,156.438049 366.509705,165.394516   C356.760559,162.745544 347.011749,160.095444 337.262177,157.448074   C332.448547,156.141006 327.606995,154.928421 322.827545,153.506744   C318.936523,152.349274 315.666321,153.030640 312.778412,155.942551   C305.739227,163.040253 298.574341,170.014313 291.592499,177.167435   C287.535278,181.324188 287.589813,185.672592 291.738403,189.896774   C299.910095,198.217407 308.261963,206.361404 316.398743,214.715424   C317.302795,215.643646 317.294922,217.460068 317.410645,218.994919  z"/>
<path fill="#84D0AE" opacity="1.000000" stroke="none" d=" M289.580933,325.852814   C298.048462,337.787018 296.122925,356.226013 285.885803,367.798248   C277.264191,377.544250 266.578247,382.078766 253.706253,381.982666   C243.386810,381.905579 233.066528,381.937042 222.267517,381.877930   C237.097763,369.641327 252.516342,357.580841 267.669861,345.196014   C275.121002,339.106262 282.081268,332.415863 289.580933,325.852814  z"/>
<path fill="#F0CE38" opacity="1.000000" stroke="none" d=" M324.573547,258.557983   C326.574463,256.103729 328.350891,253.931702 329.828217,252.125397   C337.322113,259.653870 344.640900,267.006378 352.031708,274.431244   C344.867584,283.306702 327.860382,291.503693 310.973053,293.557007   C312.167450,280.584045 316.941833,269.226746 324.573547,258.557983  z"/>
<path fill="#ED593B" opacity="1.000000" stroke="none" d=" M325.368530,170.798233   C335.856049,173.655151 345.957611,176.409882 355.230103,178.938507   C346.789490,187.363113 338.152405,195.983810 329.680786,204.439346   C323.354706,198.103973 315.964630,190.703064 307.970520,182.697235   C311.813538,179.083405 315.799438,175.075455 320.114349,171.460236   C321.193176,170.556320 323.331329,170.916702 325.368530,170.798233  z"/>
<path fill="#ED593B" opacity="1.000000" stroke="none" d=" M411.225006,286.775360   C406.825287,282.507843 402.675690,278.490204 398.817657,274.754822   C407.888763,265.697693 416.431274,257.168335 425.253693,248.359543   C427.683929,257.127563 429.856445,266.271637 432.812408,275.154999   C434.672119,280.743988 434.150452,284.806091 429.281616,288.512756   C426.428528,290.684845 424.297150,293.804810 420.671906,297.780731   C417.246216,293.774414 414.360687,290.399811 411.225006,286.775360  z"/>
<path fill="#F0CE38" opacity="1.000000" stroke="none" d=" M48.330547,196.035461   C44.537861,201.353409 40.063763,202.417618 36.058426,199.269943   C32.617966,196.566147 31.899309,191.659744 34.619755,188.233597   C37.013149,185.219345 40.197495,184.012589 43.847603,185.601486   C48.258423,187.521484 49.875130,190.970139 48.330547,196.035461  z"/>
<path fill="#030404" opacity="1.000000" stroke="none" d=" M418.117859,200.118286   C405.316528,193.889130 399.912292,182.052032 404.034149,169.973984   C407.785339,158.982010 419.662079,152.124298 431.008911,154.398560   C445.045349,157.211884 453.356903,170.201843 449.900421,183.923767   C446.497742,197.432083 432.775665,204.557739 418.117859,200.118286  M422.735748,170.947678   C418.720001,173.711243 417.638031,177.412094 419.896027,181.672638   C421.716492,185.107574 424.885803,186.354172 428.707703,185.353165   C433.082062,184.207458 435.506134,180.041534 434.359650,175.852783   C433.048218,171.061417 429.436890,169.312195 422.735748,170.947678  z"/>
<path fill="#84D0AE" opacity="1.000000" stroke="none" d=" M423.088440,170.755920   C429.436890,169.312195 433.048218,171.061417 434.359650,175.852783   C435.506134,180.041534 433.082062,184.207458 428.707703,185.353165   C424.885803,186.354172 421.716492,185.107574 419.896027,181.672638   C417.638031,177.412094 418.720001,173.711243 423.088440,170.755920  z"/>
</svg>